<svg xmlns="http://www.w3.org/2000/svg" viewBox="0 0 48 48"><defs><style>.cls-1{fill:#425b72;}.cls-2{fill:#fc6;}.cls-3{fill:#ffde76;}.cls-4{fill:#374f68;}.cls-5{fill:#dad7e5;}.cls-6{fill:#edebf2;}</style></defs><title>Crane hook pulley</title><g id="Crane_hook_pulley" data-name="Crane hook pulley"><path class="cls-1" d="M27,6V1a1,1,0,0,1,2,0V6A1,1,0,0,1,27,6Z"/><path class="cls-1" d="M19,6V1a1,1,0,0,1,2,0V6A1,1,0,0,1,19,6Z"/><path class="cls-1" d="M27,6V1a1,1,0,0,1,2,0V6A1,1,0,0,1,27,6Z"/><path class="cls-1" d="M19,6V1a1,1,0,0,1,2,0V6A1,1,0,0,1,19,6Z"/><path class="cls-1" d="M13.52,12,11,1.23A1,1,0,0,1,13,.77l2.49,10.77A1,1,0,0,1,13.52,12Z"/><path class="cls-1" d="M32.54,11.54,35,.77A1,1,0,0,1,37,1.23L34.48,12A1,1,0,0,1,32.54,11.54Z"/><path class="cls-2" d="M28,24H20c-6.62-13.24-6.61-10.82-3.55-16.89A2,2,0,0,1,18.24,6H29.76a2,2,0,0,1,1.79,1.11C34.62,13.21,34.59,10.82,28,24Z"/><path class="cls-3" d="M29,22a11.58,11.58,0,0,1-4-.31c-2.59-.82-3.51-2.62-4.29-4.2C16.8,9.61,16.63,10.72,19,6c8.12,0,10.76,0,11,0a2,2,0,0,1,1.51,1.09C34.52,13,34.53,11,29,22Z"/><path class="cls-4" d="M32,39.64C32,38,32,37,33,36c-2.74,0-3.07,2.1-4,4-2.33,4.78-8.46,3.25-9-.43A4,4,0,0,1,24,35a2,2,0,0,0,2-2V28H22v3.25a8,8,0,1,0,10,8.39"/><path class="cls-1" d="M33,36c-1,1-1,2.13-1,3.64a8,8,0,0,1-6.86,7.28l-.14,0a8,8,0,0,1-1-15.69V28h2c0,5,.22,5.63-.59,6.41A2,2,0,0,1,24,35a4,4,0,0,0-4,4.57c.34,2.47,3,3.79,5.47,3.32C30.4,42,28.47,36,33,36Z"/><path class="cls-5" d="M31.39,6.85,18.08,20.16l-2.83-5.65L23.76,6C29.85,6,30.6,5.71,31.39,6.85Z"/><path class="cls-5" d="M33.24,13.48c-.05.18.24-.43-5.24,10.52H22.73Z"/><path class="cls-6" d="M31.39,6.85,20.75,17.49l-2.83-5.65L23.76,6C29.85,6,30.59,5.71,31.39,6.85Z"/><path class="cls-6" d="M33.24,13.48C33.18,13.69,32,16,29,22a11.58,11.58,0,0,1-4-.31Z"/><path class="cls-4" d="M28,24v3a1,1,0,0,1-1,1H21a1,1,0,0,1-1-1V24Z"/><path class="cls-1" d="M28,24v2H24a2,2,0,0,1-2-2Z"/></g></svg>