<svg xmlns="http://www.w3.org/2000/svg" viewBox="0 0 48 48"><defs><style>.cls-1{fill:#9dcc6b;}.cls-2{fill:#b5e08c;}.cls-3{fill:#fc6;}.cls-4{fill:#ffde76;}.cls-5{fill:#7c7d7d;}.cls-6{fill:#919191;}.cls-7{fill:#dad7e5;}.cls-8{fill:#edebf2;}.cls-9{fill:#9fdbf3;}.cls-10{fill:#b2e5fb;}</style></defs><title>Eco Factory</title><g id="Eco_Factory" data-name="Eco Factory"><rect class="cls-1" x="5" y="1" width="18" height="13"/><path class="cls-2" d="M23,1V12H10A3,3,0,0,1,7,9V1Z"/><path class="cls-3" d="M14,9v1C8,10,9,5,9,5,12.45,5,14,7.08,14,9Z"/><path class="cls-3" d="M14,10a5.89,5.89,0,0,1,.17-2c.53-1.73,2-3,4.83-3C19,5,20,10,14,10Z"/><path class="cls-4" d="M13.83,8C10.56,8,9.44,6.37,9.09,5,12.39,5,13.47,6.83,13.83,8Z"/><path class="cls-4" d="M18.91,5c-.35,1.37-1.47,3-4.74,3C14.53,6.83,15.61,5,18.91,5Z"/><rect class="cls-5" x="1" y="22" width="26" height="25"/><path class="cls-6" d="M27,22V45H6a3,3,0,0,1-3-3V22Z"/><rect class="cls-5" x="1" y="14" width="26" height="8"/><path class="cls-6" d="M27,14v6H6a3,3,0,0,1-3-3V14Z"/><rect class="cls-7" x="27" y="17" width="20" height="30"/><path class="cls-8" d="M47,17V45H32a3,3,0,0,1-3-3V17Z"/><polygon class="cls-7" points="47 15 47 17 27 17 27 11 35 11 47 15"/><path class="cls-8" d="M47,15H33a4,4,0,0,1-4-4h6Z"/><path class="cls-8" d="M15,19H13a1,1,0,0,1,0-2h2A1,1,0,0,1,15,19Z"/><path class="cls-8" d="M22,19H20a1,1,0,0,1,0-2h2A1,1,0,0,1,22,19Z"/><path class="cls-8" d="M8,19H6a1,1,0,0,1,0-2H8A1,1,0,0,1,8,19Z"/><rect class="cls-7" x="7" y="43" width="14" height="4"/><path class="cls-8" d="M21,43v2H11a2,2,0,0,1-2-2Z"/><rect class="cls-7" x="7" y="39" width="14" height="4"/><rect class="cls-7" x="7" y="35" width="14" height="4"/><rect class="cls-9" x="31" y="30" width="4" height="4"/><rect class="cls-9" x="31" y="22" width="12" height="4"/><path class="cls-10" d="M43,22v2H35a2,2,0,0,1-2-2Z"/><rect class="cls-9" x="39" y="30" width="4" height="4"/><rect class="cls-9" x="31" y="38" width="4" height="4"/><path class="cls-10" d="M35,38v3a3,3,0,0,1-3-3Z"/><rect class="cls-9" x="39" y="38" width="4" height="4"/><path class="cls-8" d="M21,39v2H11a2,2,0,0,1-2-2Z"/><path class="cls-8" d="M21,35v2H11a2,2,0,0,1-2-2Z"/><path class="cls-10" d="M43,38v3a3,3,0,0,1-3-3Z"/><path class="cls-10" d="M35,30v3a3,3,0,0,1-3-3Z"/><path class="cls-10" d="M43,30v3a3,3,0,0,1-3-3Z"/></g></svg>