<svg xmlns="http://www.w3.org/2000/svg" viewBox="0 0 48 48"><defs><style>.cls-1{fill:#df8761;}.cls-2{fill:#f29b75;}.cls-3{fill:#fc6;}.cls-4{fill:#ffde76;}.cls-5{fill:#dad7e5;}.cls-6{fill:#edebf2;}</style></defs><title>product stack</title><g id="product_stack" data-name="product stack"><rect class="cls-1" x="7" y="21" width="34" height="26"/><path class="cls-2" d="M41,21V45H12a3,3,0,0,1-3-3V21Z"/><rect class="cls-1" x="11" y="1" width="26" height="20"/><path class="cls-2" d="M37,1V19H16a3,3,0,0,1-3-3V1Z"/><rect class="cls-3" x="21" y="1" width="6" height="6"/><path class="cls-4" d="M27,1V5a4,4,0,0,1-4-4Z"/><rect class="cls-3" x="20" y="21" width="8" height="8"/><path class="cls-4" d="M28,21v6a6,6,0,0,1-6-6Z"/><rect class="cls-5" x="11" y="37" width="10" height="6"/><path class="cls-6" d="M21,37v4H17a4,4,0,0,1-4-4Z"/><path class="cls-6" d="M37,44H30a1,1,0,0,1,0-2h7A1,1,0,0,1,37,44Z"/><path class="cls-6" d="M33,18H29a1,1,0,0,1,0-2h4A1,1,0,0,1,33,18Z"/></g></svg>