<svg xmlns="http://www.w3.org/2000/svg" viewBox="0 0 48 48"><defs><style>.cls-1{fill:#f6ccaf;}.cls-2{fill:#ffdec7;}.cls-3{fill:#374f68;}.cls-4{fill:#425b72;}.cls-5{fill:#fc6;}.cls-6{fill:#ffde76;}.cls-7{fill:#f16f39;}.cls-8{fill:#f8834b;}.cls-9{fill:#6fabe6;}.cls-10{fill:#82bcf4;}.cls-11{fill:#9fdbf3;}.cls-12{fill:#b2e5fb;}.cls-13{fill:#edebf2;}</style></defs><title>Welder</title><g id="Welder"><path class="cls-1" d="M27,29v2.67a3.65,3.65,0,0,1-6,0V29Z"/><path class="cls-2" d="M27,29v2.67a3.53,3.53,0,0,1-2,1.43,3.53,3.53,0,0,1-2-1.43V29Z"/><path class="cls-3" d="M42,38.21V47H6V38.21A4,4,0,0,1,9.13,34.3L21,31.67a3.65,3.65,0,0,0,6,0L38.87,34.3A4,4,0,0,1,42,38.21Z"/><path class="cls-4" d="M42,38.21V45H11a3,3,0,0,1-3-3V38.21a4,4,0,0,1,3.13-3.91L21.3,32.05a3.66,3.66,0,0,0,5.7-.38L38.87,34.3A4,4,0,0,1,42,38.21Z"/><path class="cls-5" d="M33,11H15a9,9,0,0,1,7-8.78h4A9,9,0,0,1,33,11Z"/><path class="cls-6" d="M32.78,9H19.3a2,2,0,0,1-1.93-2.56,8.76,8.76,0,0,1,1.37-2.73A9.06,9.06,0,0,1,22,2.22h4A9.05,9.05,0,0,1,32.78,9Z"/><path class="cls-7" d="M26,2v9H22V2a1,1,0,0,1,1-1h2A1,1,0,0,1,26,2Z"/><path class="cls-8" d="M26,2V9a2,2,0,0,1-2-2V1h1A1,1,0,0,1,26,2Z"/><path class="cls-8" d="M28,6.76l1-4A1,1,0,0,1,31,3.24l-1,4A1,1,0,0,1,28,6.76Z"/><path class="cls-8" d="M18,7.24l-1-4A1,1,0,0,1,19,2.76l1,4A1,1,0,0,1,18,7.24Z"/><rect class="cls-9" x="13" y="40" width="22" height="7"/><path class="cls-10" d="M35,40v5H17a2,2,0,0,1-2-2V40Z"/><polygon class="cls-9" points="17 32.56 17 40 13 40 13 33.44 17 32.56"/><path class="cls-10" d="M17,32.56V38a2,2,0,0,1-2-2V33Z"/><polygon class="cls-9" points="35 33.44 35 40 31 40 31 32.56 35 33.44"/><path class="cls-10" d="M35,33.44V38a2,2,0,0,1-2-2V33Z"/><path class="cls-3" d="M33,11c0,12.94.29,13.22-.88,15.12A6,6,0,0,1,27,29H21a6,6,0,0,1-6-6V11Z"/><path class="cls-4" d="M33,11c0,17.51,1.81,16-10,16a6,6,0,0,1-6-6V11Z"/><rect class="cls-11" x="19" y="15" width="10" height="5"/><path class="cls-12" d="M29,15v3H24a3,3,0,0,1-3-3Z"/><path class="cls-13" d="M16.29,43.29a1,1,0,0,1,1.42,1.42A1,1,0,0,1,16.29,43.29Z"/><path class="cls-13" d="M31,45a1,1,0,1,1,1-1A1,1,0,0,1,31,45Z"/></g></svg>